<svg xmlns="http://www.w3.org/2000/svg" viewBox="0 0 64 64" width="64" height="64" shape-rendering="crispEdges"><rect x="0" y="0" width="8" height="8" fill="#583626" /><rect x="8" y="0" width="8" height="8" fill="#694737" /><rect x="16" y="0" width="8" height="8" fill="#5c3a2a" /><rect x="24" y="0" width="8" height="8" fill="#563424" /><rect x="32" y="0" width="8" height="8" fill="#654333" /><rect x="40" y="0" width="8" height="8" fill="#624030" /><rect x="48" y="0" width="8" height="8" fill="#684636" /><rect x="56" y="0" width="8" height="8" fill="#593727" /><rect x="0" y="8" width="8" height="8" fill="#684636" /><rect x="8" y="8" width="8" height="8" fill="#523020" /><rect x="16" y="8" width="8" height="8" fill="#583626" /><rect x="24" y="8" width="8" height="8" fill="#624030" /><rect x="32" y="8" width="8" height="8" fill="#664434" /><rect x="40" y="8" width="8" height="8" fill="#613f2f" /><rect x="48" y="8" width="8" height="8" fill="#512f1f" /><rect x="56" y="8" width="8" height="8" fill="#563424" /><rect x="0" y="16" width="8" height="8" fill="#694737" /><rect x="8" y="16" width="8" height="8" fill="#512f1f" /><rect x="16" y="16" width="8" height="8" fill="#644232" /><rect x="24" y="16" width="8" height="8" fill="#5c3a2a" /><rect x="32" y="16" width="8" height="8" fill="#4d2b1b" /><rect x="40" y="16" width="8" height="8" fill="#512f1f" /><rect x="48" y="16" width="8" height="8" fill="#593727" /><rect x="56" y="16" width="8" height="8" fill="#664434" /><rect x="0" y="24" width="8" height="8" fill="#644232" /><rect x="8" y="24" width="8" height="8" fill="#dda966" /><rect x="16" y="24" width="8" height="8" fill="#daa663" /><rect x="24" y="24" width="8" height="8" fill="#e7b370" /><rect x="32" y="24" width="8" height="8" fill="#dba764" /><rect x="40" y="24" width="8" height="8" fill="#deaa67" /><rect x="48" y="24" width="8" height="8" fill="#e6b26f" /><rect x="56" y="24" width="8" height="8" fill="#5b3929" /><rect x="0" y="32" width="8" height="8" fill="#4d2b1b" /><rect x="8" y="32" width="8" height="8" fill="#ffffff" /><rect x="16" y="32" width="8" height="8" fill="#326095" /><rect x="24" y="32" width="8" height="8" fill="#e3af6c" /><rect x="32" y="32" width="8" height="8" fill="#e9b572" /><rect x="40" y="32" width="8" height="8" fill="#2d5b90" /><rect x="48" y="32" width="8" height="8" fill="#ffffff" /><rect x="56" y="32" width="8" height="8" fill="#654333" /><rect x="0" y="40" width="8" height="8" fill="#5e3c2c" /><rect x="8" y="40" width="8" height="8" fill="#dba764" /><rect x="16" y="40" width="8" height="8" fill="#e2ae6b" /><rect x="24" y="40" width="8" height="8" fill="#d7a360" /><rect x="32" y="40" width="8" height="8" fill="#d8a461" /><rect x="40" y="40" width="8" height="8" fill="#e1ad6a" /><rect x="48" y="40" width="8" height="8" fill="#dba764" /><rect x="56" y="40" width="8" height="8" fill="#523020" /><rect x="0" y="48" width="8" height="8" fill="#e3af6c" /><rect x="8" y="48" width="8" height="8" fill="#e9b572" /><rect x="16" y="48" width="8" height="8" fill="#e9b572" /><rect x="24" y="48" width="8" height="8" fill="#8f563b" /><rect x="32" y="48" width="8" height="8" fill="#8f563b" /><rect x="40" y="48" width="8" height="8" fill="#e9b572" /><rect x="48" y="48" width="8" height="8" fill="#e6b26f" /><rect x="56" y="48" width="8" height="8" fill="#e6b26f" /><rect x="0" y="56" width="8" height="8" fill="#e2ae6b" /><rect x="8" y="56" width="8" height="8" fill="#d8a461" /><rect x="16" y="56" width="8" height="8" fill="#e8b471" /><rect x="24" y="56" width="8" height="8" fill="#e0ac69" /><rect x="32" y="56" width="8" height="8" fill="#e2ae6b" /><rect x="40" y="56" width="8" height="8" fill="#e4b06d" /><rect x="48" y="56" width="8" height="8" fill="#e1ad6a" /><rect x="56" y="56" width="8" height="8" fill="#e8b471" /></svg>